<svg width="1920" height="128" viewBox="0 0 1920 128" fill="none" xmlns="http://www.w3.org/2000/svg">
<path d="M1920 71L623.862 71.0001L586.125 51.7354L5.72298e-05 51.7355L5.27069e-05 0.000165763L1920 -2.08826e-06L1920 71Z" fill="url(#paint0_linear_1549_7654)"/>
<path d="M1919 22.6149L1919 128L1421.82 128L1370.86 86.2115L437.142 86.2117L332 0L1919 -0.00027748L1919 22.6149Z" fill="url(#paint1_linear_1549_7654)"/>
<path d="M1920 82L1594.23 82L1550.69 59.8113L384.697 59.8114L353.088 43.7039L4.01796e-06 43.7039L1.97257e-07 0.000169137L1920 1.28564e-06L1920 82Z" fill="#EDEDED"/>
<path d="M25.8003 61L15 69L174.199 69L185 61L25.8003 61Z" fill="url(#paint2_linear_1549_7654)"/>
<path d="M1757.29 69L1747 61L1898.71 61L1909 69L1757.29 69Z" fill="url(#paint3_linear_1549_7654)"/>
<defs>
<linearGradient id="paint0_linear_1549_7654" x1="-2.43894e+06" y1="-245304" x2="-3.58186e+06" y2="-245304" gradientUnits="userSpaceOnUse">
<stop stop-color="#931B7D"/>
<stop offset="0.14" stop-color="#911F7E"/>
<stop offset="0.28" stop-color="#8B2B82"/>
<stop offset="0.42" stop-color="#803E89"/>
<stop offset="0.56" stop-color="#715A92"/>
<stop offset="0.7" stop-color="#5E7D9E"/>
<stop offset="0.83" stop-color="#47A8AD"/>
<stop offset="0.97" stop-color="#2CDBBF"/>
<stop offset="1" stop-color="#25E8C3"/>
</linearGradient>
<linearGradient id="paint1_linear_1549_7654" x1="332" y1="64" x2="1919" y2="63.9997" gradientUnits="userSpaceOnUse">
<stop stop-color="#931B7D"/>
<stop offset="0.14" stop-color="#911F7E"/>
<stop offset="0.28" stop-color="#8B2B82"/>
<stop offset="0.42" stop-color="#803E89"/>
<stop offset="0.56" stop-color="#715A92"/>
<stop offset="0.7" stop-color="#5E7D9E"/>
<stop offset="0.83" stop-color="#47A8AD"/>
<stop offset="0.97" stop-color="#2CDBBF"/>
<stop offset="1" stop-color="#25E8C3"/>
</linearGradient>
<linearGradient id="paint2_linear_1549_7654" x1="-306592" y1="-27434.9" x2="-319570" y2="-27434.9" gradientUnits="userSpaceOnUse">
<stop stop-color="#AC0088"/>
<stop offset="0.1" stop-color="#B10F87"/>
<stop offset="0.3" stop-color="#BF3583"/>
<stop offset="0.57" stop-color="#D6737D"/>
<stop offset="0.89" stop-color="#F4C776"/>
<stop offset="1" stop-color="#FFE473"/>
</linearGradient>
<linearGradient id="paint3_linear_1549_7654" x1="-95403.3" y1="21996.5" x2="-107770" y2="21996.5" gradientUnits="userSpaceOnUse">
<stop stop-color="#AC0088"/>
<stop offset="0.1" stop-color="#B10F87"/>
<stop offset="0.3" stop-color="#BF3583"/>
<stop offset="0.57" stop-color="#D6737D"/>
<stop offset="0.89" stop-color="#F4C776"/>
<stop offset="1" stop-color="#FFE473"/>
</linearGradient>
</defs>
</svg>
